<svg xmlns="http://www.w3.org/2000/svg" width="70" height="70" viewBox="0 0 70 70"><g transform="translate(-162 -391)"><rect width="70" height="70" transform="translate(162 391)" fill="none"/><path d="M5.054-382.332c-.356,0-.427.071-.5.427l-1.067,6.69c-.071.356.071.5.356.5H25.905c-2.135,4.412-7.828,16.3-18,36.935-.142.356,0,.5.285.5h8.184a.622.622,0,0,0,.64-.427c5.053-10.6,13.806-29.391,17.649-38.358a2.786,2.786,0,0,0,.213-.925v-4.91c0-.356-.142-.427-.427-.427Z" transform="translate(177.329 785.808)" fill="#3280c4"/></g></svg>